<?xml version="1.0" encoding="UTF-8" standalone="no"?><svg xmlns="http://www.w3.org/2000/svg" xmlns:xlink="http://www.w3.org/1999/xlink" contentScriptType="application/ecmascript" contentStyleType="text/css" height="1590px" preserveAspectRatio="none" style="width:2201px;height:1590px;background:#FFFFFF;" version="1.1" viewBox="0 0 2201 1590" width="2201px" zoomAndPan="magnify"><defs><filter height="300%" id="f1iyvpva45bo38" width="300%" x="-1" y="-1"><feGaussianBlur result="blurOut" stdDeviation="2.0"/><feColorMatrix in="blurOut" result="blurOut2" type="matrix" values="0 0 0 0 0 0 0 0 0 0 0 0 0 0 0 0 0 0 .4 0"/><feOffset dx="4.0" dy="4.0" in="blurOut2" result="blurOut3"/><feBlend in="SourceGraphic" in2="blurOut3" mode="normal"/></filter></defs><g><text fill="#000000" font-family="sans-serif" font-size="18" lengthAdjust="spacing" textLength="432" x="878" y="16.708">Варианты использования приложения "SSR"</text><!--MD5=[9c0f4031f3a6972e4b8a53dbbf4fc700]
cluster Общее--><rect fill="#FFFFFF" filter="url(#f1iyvpva45bo38)" height="105" style="stroke:#000000;stroke-width:1.5;" width="725.5" x="718.5" y="964.9531"/><text fill="#000000" font-family="sans-serif" font-size="14" font-weight="bold" lengthAdjust="spacing" textLength="57" x="1052.75" y="979.9482">Общее</text><!--MD5=[324372da09d88db3208d278c2d8d67a5]
cluster Взаимодействие со студентами--><rect fill="#FFFFFF" filter="url(#f1iyvpva45bo38)" height="572" style="stroke:#000000;stroke-width:1.5;" width="807.5" x="229.5" y="368.9531"/><text fill="#000000" font-family="sans-serif" font-size="14" font-weight="bold" lengthAdjust="spacing" textLength="259" x="503.75" y="383.9482">Взаимодействие со студентами</text><!--MD5=[251012a0df6f774ee4a97ec4b63730a1]
cluster Взаимодействие с руководителями--><rect fill="#FFFFFF" filter="url(#f1iyvpva45bo38)" height="485" style="stroke:#000000;stroke-width:1.5;" width="1073" x="1116" y="1093.9531"/><text fill="#000000" font-family="sans-serif" font-size="14" font-weight="bold" lengthAdjust="spacing" textLength="291" x="1507" y="1108.9482">Взаимодействие с руководителями</text><!--MD5=[7072ab1d44e15720c1b033ee141bb243]
cluster Возможности администрирования--><rect fill="#FFFFFF" filter="url(#f1iyvpva45bo38)" height="317" style="stroke:#000000;stroke-width:1.5;" width="1258.5" x="229" y="27.9531"/><text fill="#000000" font-family="sans-serif" font-size="14" font-weight="bold" lengthAdjust="spacing" textLength="280" x="718.25" y="42.9482">Возможности администрирования</text><ellipse cx="854.334" cy="1026.8199" fill="#FEFECE" filter="url(#f1iyvpva45bo38)" rx="119.834" ry="26.3668" style="stroke:#A80036;stroke-width:1.5;"/><text fill="#000000" font-family="sans-serif" font-size="14" lengthAdjust="spacing" textLength="207" x="750.834" y="1029.6666">Просмотреть свой профиль</text><ellipse cx="1314.3004" cy="1025.0132" fill="#FEFECE" filter="url(#f1iyvpva45bo38)" rx="113.3004" ry="25.0601" style="stroke:#A80036;stroke-width:1.5;"/><text fill="#000000" font-family="sans-serif" font-size="14" lengthAdjust="spacing" textLength="193" x="1217.8004" y="1027.8599">Редактирование профиля</text><ellipse cx="412.8656" cy="666.9262" fill="#FEFECE" filter="url(#f1iyvpva45bo38)" rx="160.3656" ry="34.4731" style="stroke:#A80036;stroke-width:1.5;"/><text fill="#000000" font-family="sans-serif" font-size="14" lengthAdjust="spacing" textLength="292" x="266.8656" y="669.7729">Просмотреть список курируемых работ</text><ellipse cx="413.2487" cy="547.9029" fill="#FEFECE" filter="url(#f1iyvpva45bo38)" rx="150.2487" ry="32.4497" style="stroke:#A80036;stroke-width:1.5;"/><text fill="#000000" font-family="sans-serif" font-size="14" lengthAdjust="spacing" textLength="271" x="277.7487" y="550.7495">Просмотреть информацию о работе</text><ellipse cx="854.3886" cy="642.7308" fill="#FEFECE" filter="url(#f1iyvpva45bo38)" rx="146.8886" ry="31.7777" style="stroke:#A80036;stroke-width:1.5;"/><text fill="#000000" font-family="sans-serif" font-size="14" lengthAdjust="spacing" textLength="264" x="722.3886" y="645.5775">Добавить индивидуальное задание</text><ellipse cx="854.6526" cy="540.1836" fill="#FEFECE" filter="url(#f1iyvpva45bo38)" rx="166.6526" ry="35.7305" style="stroke:#A80036;stroke-width:1.5;"/><text fill="#000000" font-family="sans-serif" font-size="14" lengthAdjust="spacing" textLength="305" x="702.1526" y="543.0303">Редактировать индивидуальное задание</text><ellipse cx="854.7487" cy="436.9029" fill="#FEFECE" filter="url(#f1iyvpva45bo38)" rx="150.2487" ry="32.4497" style="stroke:#A80036;stroke-width:1.5;"/><text fill="#000000" font-family="sans-serif" font-size="14" lengthAdjust="spacing" textLength="271" x="719.2487" y="439.7495">Отметить задание как выполненное</text><ellipse cx="412.8277" cy="433.8187" fill="#FEFECE" filter="url(#f1iyvpva45bo38)" rx="137.3277" ry="29.8655" style="stroke:#A80036;stroke-width:1.5;"/><text fill="#000000" font-family="sans-serif" font-size="14" lengthAdjust="spacing" textLength="244" x="290.8277" y="436.6653">Просмотреть прогреcc студента</text><ellipse cx="413.1213" cy="888.8774" fill="#FEFECE" filter="url(#f1iyvpva45bo38)" rx="167.6213" ry="35.9243" style="stroke:#A80036;stroke-width:1.5;"/><text fill="#000000" font-family="sans-serif" font-size="14" lengthAdjust="spacing" textLength="307" x="259.6213" y="891.7241">Просмотреть список оставленных заявок</text><ellipse cx="412.8278" cy="769.0187" fill="#FEFECE" filter="url(#f1iyvpva45bo38)" rx="148.3278" ry="32.0656" style="stroke:#A80036;stroke-width:1.5;"/><text fill="#000000" font-family="sans-serif" font-size="14" lengthAdjust="spacing" textLength="267" x="279.3278" y="771.8654">Просмотреть информацию о заявке</text><ellipse cx="854.2532" cy="820.9038" fill="#FEFECE" filter="url(#f1iyvpva45bo38)" rx="77.7532" ry="17.9506" style="stroke:#A80036;stroke-width:1.5;"/><text fill="#000000" font-family="sans-serif" font-size="14" lengthAdjust="spacing" textLength="113" x="795.1994" y="824.534">Принять заявку</text><ellipse cx="854.728" cy="747.9987" fill="#FEFECE" filter="url(#f1iyvpva45bo38)" rx="85.728" ry="19.5456" style="stroke:#A80036;stroke-width:1.5;"/><text fill="#000000" font-family="sans-serif" font-size="14" lengthAdjust="spacing" textLength="132" x="788.728" y="750.8454">Отклонить заявку</text><ellipse cx="2090.5271" cy="1166.0585" fill="#FEFECE" filter="url(#f1iyvpva45bo38)" rx="81.0271" ry="18.6054" style="stroke:#A80036;stroke-width:1.5;"/><text fill="#000000" font-family="sans-serif" font-size="14" lengthAdjust="spacing" textLength="121" x="2028.7415" y="1169.3249">Оставить заявку</text><ellipse cx="1314.5147" cy="1166.0561" fill="#FEFECE" filter="url(#f1iyvpva45bo38)" rx="171.0147" ry="36.6029" style="stroke:#A80036;stroke-width:1.5;"/><text fill="#000000" font-family="sans-serif" font-size="14" lengthAdjust="spacing" textLength="314" x="1157.5147" y="1168.9027">Просмотреть список доступных научруков</text><ellipse cx="1752.4969" cy="1166.1525" fill="#FEFECE" filter="url(#f1iyvpva45bo38)" rx="133.9969" ry="29.1994" style="stroke:#A80036;stroke-width:1.5;"/><text fill="#000000" font-family="sans-serif" font-size="14" lengthAdjust="spacing" textLength="237" x="1633.9969" y="1168.9992">Просмотреть профиль научрука</text><ellipse cx="1314.6058" cy="1419.9743" fill="#FEFECE" filter="url(#f1iyvpva45bo38)" rx="168.1058" ry="36.0212" style="stroke:#A80036;stroke-width:1.5;"/><text fill="#000000" font-family="sans-serif" font-size="14" lengthAdjust="spacing" textLength="308" x="1160.6058" y="1422.821">Просмотреть список моих текущих работ</text><ellipse cx="1314.6801" cy="1292.8891" fill="#FEFECE" filter="url(#f1iyvpva45bo38)" rx="182.6801" ry="38.936" style="stroke:#A80036;stroke-width:1.5;"/><text fill="#000000" font-family="sans-serif" font-size="14" lengthAdjust="spacing" textLength="338" x="1145.6801" y="1295.7358">Просмотреть информацию по данной работе</text><ellipse cx="1314.6213" cy="1526.8774" fill="#FEFECE" filter="url(#f1iyvpva45bo38)" rx="167.6213" ry="35.9243" style="stroke:#A80036;stroke-width:1.5;"/><text fill="#000000" font-family="sans-serif" font-size="14" lengthAdjust="spacing" textLength="307" x="1161.1213" y="1529.7241">Просмотреть список оставленных заявок</text><ellipse cx="1752.3278" cy="1527.0187" fill="#FEFECE" filter="url(#f1iyvpva45bo38)" rx="148.3278" ry="32.0656" style="stroke:#A80036;stroke-width:1.5;"/><text fill="#000000" font-family="sans-serif" font-size="14" lengthAdjust="spacing" textLength="267" x="1618.8278" y="1529.8654">Просмотреть информацию о заявке</text><ellipse cx="2090.712" cy="1526.8955" fill="#FEFECE" filter="url(#f1iyvpva45bo38)" rx="82.712" ry="18.9424" style="stroke:#A80036;stroke-width:1.5;"/><text fill="#000000" font-family="sans-serif" font-size="14" lengthAdjust="spacing" textLength="125" x="2027.5208" y="1529.9746">Отменить заявку</text><ellipse cx="854.5656" cy="283.0662" fill="#FEFECE" filter="url(#f1iyvpva45bo38)" rx="83.5656" ry="19.1131" style="stroke:#A80036;stroke-width:1.5;"/><text fill="#000000" font-family="sans-serif" font-size="14" lengthAdjust="spacing" textLength="127" x="790.6623" y="286.0505">Добавить работу</text><ellipse cx="1314.4506" cy="296.9432" fill="#FEFECE" filter="url(#f1iyvpva45bo38)" rx="145.4506" ry="31.4901" style="stroke:#A80036;stroke-width:1.5;"/><text fill="#000000" font-family="sans-serif" font-size="14" lengthAdjust="spacing" textLength="261" x="1183.9506" y="299.7899">Назначить руководителя на работу</text><ellipse cx="413.1058" cy="138.9743" fill="#FEFECE" filter="url(#f1iyvpva45bo38)" rx="168.1058" ry="36.0212" style="stroke:#A80036;stroke-width:1.5;"/><text fill="#000000" font-family="sans-serif" font-size="14" lengthAdjust="spacing" textLength="308" x="259.1058" y="141.821">Просмотреть список всех руководителей</text><ellipse cx="412.9721" cy="239.7476" fill="#FEFECE" filter="url(#f1iyvpva45bo38)" rx="134.4721" ry="29.2944" style="stroke:#A80036;stroke-width:1.5;"/><text fill="#000000" font-family="sans-serif" font-size="14" lengthAdjust="spacing" textLength="238" x="293.9721" y="242.5942">Просмотреть список всех работ</text><ellipse cx="854.7487" cy="195.9029" fill="#FEFECE" filter="url(#f1iyvpva45bo38)" rx="150.2487" ry="32.4497" style="stroke:#A80036;stroke-width:1.5;"/><text fill="#000000" font-family="sans-serif" font-size="14" lengthAdjust="spacing" textLength="271" x="719.2487" y="198.7495">Просмотреть информацию о работе</text><ellipse cx="1314.4876" cy="195.7506" fill="#FEFECE" filter="url(#f1iyvpva45bo38)" rx="156.9876" ry="33.7975" style="stroke:#A80036;stroke-width:1.5;"/><text fill="#000000" font-family="sans-serif" font-size="14" lengthAdjust="spacing" textLength="285" x="1171.9876" y="198.5973">Редактировать информацию о работе</text><ellipse cx="1314.3479" cy="94.9227" fill="#FEFECE" filter="url(#f1iyvpva45bo38)" rx="147.8479" ry="31.9696" style="stroke:#A80036;stroke-width:1.5;"/><text fill="#000000" font-family="sans-serif" font-size="14" lengthAdjust="spacing" textLength="266" x="1181.3479" y="97.7694">Просмотреть статистику по работе</text><!--MD5=[fee662a292a0353a69bd162820bae93b]
entity User--><ellipse cx="413" cy="995.9531" fill="#FEFECE" filter="url(#f1iyvpva45bo38)" rx="8" ry="8" style="stroke:#A80036;stroke-width:1.5;"/><path d="M413,1003.9531 L413,1030.9531 M400,1011.9531 L426,1011.9531 M413,1030.9531 L400,1045.9531 M413,1030.9531 L426,1045.9531 " fill="none" filter="url(#f1iyvpva45bo38)" style="stroke:#A80036;stroke-width:1.5;"/><text fill="#000000" font-family="sans-serif" font-size="14" lengthAdjust="spacing" textLength="104" x="361" y="1064.4482">Пользователь</text><!--MD5=[cd81128ed1873346d3678821c65bf0c5]
entity SV--><ellipse cx="94" cy="857.9531" fill="#FEFECE" filter="url(#f1iyvpva45bo38)" rx="8" ry="8" style="stroke:#A80036;stroke-width:1.5;"/><path d="M94,865.9531 L94,892.9531 M81,873.9531 L107,873.9531 M94,892.9531 L81,907.9531 M94,892.9531 L107,907.9531 " fill="none" filter="url(#f1iyvpva45bo38)" style="stroke:#A80036;stroke-width:1.5;"/><text fill="#000000" font-family="sans-serif" font-size="14" lengthAdjust="spacing" textLength="104" x="42" y="926.4482">Руководитель</text><!--MD5=[bd64501f9605593220005f0447f48caa]
entity ST--><ellipse cx="854.5" cy="1388.9531" fill="#FEFECE" filter="url(#f1iyvpva45bo38)" rx="8" ry="8" style="stroke:#A80036;stroke-width:1.5;"/><path d="M854.5,1396.9531 L854.5,1423.9531 M841.5,1404.9531 L867.5,1404.9531 M854.5,1423.9531 L841.5,1438.9531 M854.5,1423.9531 L867.5,1438.9531 " fill="none" filter="url(#f1iyvpva45bo38)" style="stroke:#A80036;stroke-width:1.5;"/><text fill="#000000" font-family="sans-serif" font-size="14" lengthAdjust="spacing" textLength="63" x="823" y="1457.4482">Студент</text><!--MD5=[97ab183161fd5d1db7fba7485cf76add]
entity Admin--><ellipse cx="94" cy="158.9531" fill="#FEFECE" filter="url(#f1iyvpva45bo38)" rx="8" ry="8" style="stroke:#A80036;stroke-width:1.5;"/><path d="M94,166.9531 L94,193.9531 M81,174.9531 L107,174.9531 M94,193.9531 L81,208.9531 M94,193.9531 L107,208.9531 " fill="none" filter="url(#f1iyvpva45bo38)" style="stroke:#A80036;stroke-width:1.5;"/><text fill="#000000" font-family="sans-serif" font-size="14" lengthAdjust="spacing" textLength="176" x="6" y="227.4482">Ведущий руководитель</text><!--MD5=[8d6c4ccfe3e7fcc1c06253634b896865]
link SV to User--><path d="M146.28,911.2831 C199.45,934.4231 282.93,970.7631 342.11,996.5331 " fill="none" id="SV-to-User" style="stroke:#A80036;stroke-width:1.0;"/><polygon fill="none" points="345.25,990.2631,360.79,1004.6631,339.66,1003.0931,345.25,990.2631" style="stroke:#A80036;stroke-width:1.0;"/><!--MD5=[8ec223de85e888309344b21b146105ce]
reverse link User to ST--><path d="M474.44,1080.9931 C569.61,1166.1031 750.98,1328.2731 822.96,1392.6431 " fill="none" id="User-backto-ST" style="stroke:#A80036;stroke-width:1.0;"/><polygon fill="none" points="469.62,1086.0831,459.38,1067.5331,478.95,1075.6431,469.62,1086.0831" style="stroke:#A80036;stroke-width:1.0;"/><!--MD5=[80112dc81c610a3a4f03923ee1447bef]
link Admin to AllSVList--><path d="M182.04,175.9531 C210.23,171.4131 242.22,166.2631 273.2,161.2831 " fill="none" id="Admin-to-AllSVList" style="stroke:#A80036;stroke-width:1.0;"/><polygon fill="#A80036" points="278.16,160.4831,268.6354,157.9768,273.2246,161.2842,269.9172,165.8734,278.16,160.4831" style="stroke:#A80036;stroke-width:1.0;"/><!--MD5=[9b87b838aa465e6562683160d89fe6f8]
link Admin to AllWorksList--><path d="M182.04,203.6831 C217.91,209.3431 259.96,215.9731 298.22,222.0031 " fill="none" id="Admin-to-AllWorksList" style="stroke:#A80036;stroke-width:1.0;"/><polygon fill="#A80036" points="303.35,222.8131,295.092,217.4461,298.4124,222.026,293.8325,225.3464,303.35,222.8131" style="stroke:#A80036;stroke-width:1.0;"/><!--MD5=[1b7a2976c3604537ec677915f25ec3e3]
link AllWorksList to CreateWork--><path d="M529.28,254.8431 C556.08,258.0631 584.52,261.3031 611,263.9531 C663.5,269.2031 722.52,273.8531 769.19,277.2431 " fill="none" id="AllWorksList-to-CreateWork" style="stroke:#A80036;stroke-width:1.0;stroke-dasharray:7.0,7.0;"/><polygon fill="#A80036" points="774.24,277.6031,765.5488,272.9703,769.2528,277.2459,764.9772,280.9499,774.24,277.6031" style="stroke:#A80036;stroke-width:1.0;"/><text fill="#000000" font-family="sans-serif" font-size="13" lengthAdjust="spacing" textLength="45" x="612" y="260.02">include</text><!--MD5=[11f036705fb83a5b1ccddbb6d8bcf436]
link AllWorksList to CheckWorkInfo--><path d="M535.55,227.7831 C590.55,222.2831 655.87,215.7431 712.96,210.0231 " fill="none" id="AllWorksList-to-CheckWorkInfo" style="stroke:#A80036;stroke-width:1.0;stroke-dasharray:7.0,7.0;"/><polygon fill="#A80036" points="718.11,209.5031,708.7549,206.4238,713.1351,210.0035,709.5555,214.3837,718.11,209.5031" style="stroke:#A80036;stroke-width:1.0;"/><text fill="#000000" font-family="sans-serif" font-size="13" lengthAdjust="spacing" textLength="45" x="612" y="213.02">include</text><!--MD5=[6df63630c6c76d533ef7469ef372276c]
link CheckWorkInfo to EditWorkInfo--><path d="M1004.52,195.9531 C1051.75,195.9531 1104.19,195.9531 1152.24,195.9531 " fill="none" id="CheckWorkInfo-to-EditWorkInfo" style="stroke:#A80036;stroke-width:1.0;stroke-dasharray:7.0,7.0;"/><polygon fill="#A80036" points="1157.48,195.9531,1148.48,191.9531,1152.48,195.9531,1148.48,199.9531,1157.48,195.9531" style="stroke:#A80036;stroke-width:1.0;"/><text fill="#000000" font-family="sans-serif" font-size="13" lengthAdjust="spacing" textLength="45" x="1054" y="192.02">include</text><!--MD5=[a82f9269827e9582d10d8936bebf6d11]
link CheckWorkInfo to CheckWorkStat--><path d="M960.29,172.8431 C1033.52,156.6931 1131.06,135.1831 1205.08,118.8631 " fill="none" id="CheckWorkInfo-to-CheckWorkStat" style="stroke:#A80036;stroke-width:1.0;stroke-dasharray:7.0,7.0;"/><polygon fill="#A80036" points="1210.37,117.6931,1200.7221,115.7138,1205.4861,118.7642,1202.4357,123.5281,1210.37,117.6931" style="stroke:#A80036;stroke-width:1.0;"/><text fill="#000000" font-family="sans-serif" font-size="13" lengthAdjust="spacing" textLength="45" x="1054" y="139.02">include</text><!--MD5=[25ad93d0e72c3791a800b99e3ada8705]
link CheckWorkInfo to AddSVToWork--><path d="M960.29,219.0631 C1034.04,235.3231 1132.43,257.0231 1206.64,273.3831 " fill="none" id="CheckWorkInfo-to-AddSVToWork" style="stroke:#A80036;stroke-width:1.0;stroke-dasharray:7.0,7.0;"/><polygon fill="#A80036" points="1211.94,274.5531,1204.0057,268.7181,1207.0561,273.4821,1202.2921,276.5324,1211.94,274.5531" style="stroke:#A80036;stroke-width:1.0;"/><text fill="#000000" font-family="sans-serif" font-size="13" lengthAdjust="spacing" textLength="45" x="1054" y="237.02">include</text><!--MD5=[3b3a110f6aeec0a0bf442c01daca6c1c]
link User to Profile--><path d="M465.28,1026.9531 C529.55,1026.9531 641.88,1026.9531 729.22,1026.9531 " fill="none" id="User-to-Profile" style="stroke:#A80036;stroke-width:1.0;"/><polygon fill="#A80036" points="734.41,1026.9531,725.41,1022.9531,729.41,1026.9531,725.41,1030.9531,734.41,1026.9531" style="stroke:#A80036;stroke-width:1.0;"/><!--MD5=[a8faaf5b62166ef60bb93dfafe814cfa]
link Profile to EditProfile--><path d="M974.64,1026.4331 C1042.7,1026.1331 1127.74,1025.7631 1195.6,1025.4631 " fill="none" id="Profile-to-EditProfile" style="stroke:#A80036;stroke-width:1.0;stroke-dasharray:7.0,7.0;"/><polygon fill="#A80036" points="1200.87,1025.4431,1191.8473,1021.4946,1195.8701,1025.4717,1191.893,1029.4945,1200.87,1025.4431" style="stroke:#A80036;stroke-width:1.0;"/><text fill="#000000" font-family="sans-serif" font-size="13" lengthAdjust="spacing" textLength="45" x="1054" y="1022.02">include</text><!--MD5=[2ce3e737887138c5b64db932c0e626f7]
link SVList to SVProfile--><path d="M1485.63,1165.9531 C1527.83,1165.9531 1572.54,1165.9531 1613.01,1165.9531 " fill="none" id="SVList-to-SVProfile" style="stroke:#A80036;stroke-width:1.0;stroke-dasharray:7.0,7.0;"/><polygon fill="#A80036" points="1618.44,1165.9531,1609.44,1161.9531,1613.44,1165.9531,1609.44,1169.9531,1618.44,1165.9531" style="stroke:#A80036;stroke-width:1.0;"/><text fill="#000000" font-family="sans-serif" font-size="13" lengthAdjust="spacing" textLength="45" x="1528" y="1162.02">include</text><!--MD5=[360af0395dd7dd76ef50bcf096fcf2cb]
link SVProfile to ConnectToSV--><path d="M1886.78,1165.9531 C1926.25,1165.9531 1968.39,1165.9531 2003.96,1165.9531 " fill="none" id="SVProfile-to-ConnectToSV" style="stroke:#A80036;stroke-width:1.0;stroke-dasharray:7.0,7.0;"/><polygon fill="#A80036" points="2009.16,1165.9531,2000.16,1161.9531,2004.16,1165.9531,2000.16,1169.9531,2009.16,1165.9531" style="stroke:#A80036;stroke-width:1.0;"/><text fill="#000000" font-family="sans-serif" font-size="13" lengthAdjust="spacing" textLength="45" x="1932" y="1162.02">include</text><!--MD5=[5e7cea241a12efb0dc6838175514910d]
link SV to SVWorksList--><path d="M114.79,848.4231 C135.85,809.5031 172.77,751.9031 221,718.9531 C239.2,706.5131 260.28,697.0431 281.64,689.8431 " fill="none" id="SV-to-SVWorksList" style="stroke:#A80036;stroke-width:1.0;"/><polygon fill="#A80036" points="286.49,688.2431,276.6895,687.2679,281.7423,689.8114,279.1988,694.8642,286.49,688.2431" style="stroke:#A80036;stroke-width:1.0;"/><!--MD5=[e6c4f6d4efca45a4f90b305581d0708e]
link SVWorksList to SVWorkInfo--><path d="M413,632.2131 C413,617.6731 413,600.7331 413,585.8631 " fill="none" id="SVWorksList-to-SVWorkInfo" style="stroke:#A80036;stroke-width:1.0;stroke-dasharray:7.0,7.0;"/><polygon fill="#A80036" points="413,580.4931,409,589.4931,413,585.4931,417,589.4931,413,580.4931" style="stroke:#A80036;stroke-width:1.0;"/><text fill="#000000" font-family="sans-serif" font-size="13" lengthAdjust="spacing" textLength="45" x="379" y="611.02">include</text><!--MD5=[104e25077e1fb39abdad48982d0e6622]
link SVWorkInfo to CheckProgress--><path d="M413,515.2831 C413,500.9831 413,484.1731 413,469.5531 " fill="none" id="SVWorkInfo-to-CheckProgress" style="stroke:#A80036;stroke-width:1.0;stroke-dasharray:7.0,7.0;"/><polygon fill="#A80036" points="413,464.2831,409,473.2831,413,469.2831,417,473.2831,413,464.2831" style="stroke:#A80036;stroke-width:1.0;"/><text fill="#000000" font-family="sans-serif" font-size="13" lengthAdjust="spacing" textLength="45" x="379" y="494.27">include</text><!--MD5=[e9e0a5cc833066c805f71efa9e3895b8]
link CheckProgress to CreateTask--><path d="M494.48,458.1731 C522.87,468.4031 554.33,481.7531 581,497.9531 C635.35,530.9731 632.49,561.9231 688,592.9531 C706.31,603.1931 726.96,611.5631 747.31,618.3331 " fill="none" id="CheckProgress-to-CreateTask" style="stroke:#A80036;stroke-width:1.0;stroke-dasharray:7.0,7.0;"/><polygon fill="#A80036" points="752.2,619.9231,744.8968,613.3153,747.4495,618.3635,742.4013,620.9162,752.2,619.9231" style="stroke:#A80036;stroke-width:1.0;"/><text fill="#000000" font-family="sans-serif" font-size="13" lengthAdjust="spacing" textLength="45" x="612" y="518.02">include</text><!--MD5=[f84103201aa52bd30eb857d645fb5c33]
link CheckProgress to DoneTask--><path d="M550.65,434.8831 C597.7,435.2031 650.7,435.5731 699.06,435.9031 " fill="none" id="CheckProgress-to-DoneTask" style="stroke:#A80036;stroke-width:1.0;stroke-dasharray:7.0,7.0;"/><polygon fill="#A80036" points="704.33,435.9331,695.353,431.8818,699.3301,435.9046,695.3073,439.8816,704.33,435.9331" style="stroke:#A80036;stroke-width:1.0;"/><text fill="#000000" font-family="sans-serif" font-size="13" lengthAdjust="spacing" textLength="45" x="612" y="432.02">include</text><!--MD5=[706dcb81685ae8594299d4791caee5ff]
link CheckProgress to EditTask--><path d="M505.87,456.1131 C573.45,472.4131 665.77,494.6731 738.29,512.1631 " fill="none" id="CheckProgress-to-EditTask" style="stroke:#A80036;stroke-width:1.0;stroke-dasharray:7.0,7.0;"/><polygon fill="#A80036" points="743.48,513.4231,735.6687,507.4245,738.6194,512.2509,733.793,515.2015,743.48,513.4231" style="stroke:#A80036;stroke-width:1.0;"/><text fill="#000000" font-family="sans-serif" font-size="13" lengthAdjust="spacing" textLength="45" x="612" y="480.02">include</text><!--MD5=[26db2f3820413bf176d22a79f56195f3]
link SV to ApplicationsListSV--><path d="M146.28,888.9531 C172.42,888.9531 205.88,888.9531 240.18,888.9531 " fill="none" id="SV-to-ApplicationsListSV" style="stroke:#A80036;stroke-width:1.0;"/><polygon fill="#A80036" points="245.25,888.9531,236.25,884.9531,240.25,888.9531,236.25,892.9531,245.25,888.9531" style="stroke:#A80036;stroke-width:1.0;"/><!--MD5=[d5bfc956d8f6f8836eba49355bebd612]
link ApplicationsListSV to CheckApplicationSV--><path d="M413,852.9531 C413,838.3131 413,821.4031 413,806.6031 " fill="none" id="ApplicationsListSV-to-CheckApplicationSV" style="stroke:#A80036;stroke-width:1.0;stroke-dasharray:7.0,7.0;"/><polygon fill="#A80036" points="413,801.2531,409,810.2531,413,806.2531,417,810.2531,413,801.2531" style="stroke:#A80036;stroke-width:1.0;"/><text fill="#000000" font-family="sans-serif" font-size="13" lengthAdjust="spacing" textLength="45" x="379" y="831.52">include</text><!--MD5=[0b5a517374c968004838be542fb2eb0f]
link CheckApplicationSV to ApplyApplictaionSV--><path d="M543.49,784.2731 C620.48,793.3831 715.37,804.6131 779.74,812.2231 " fill="none" id="CheckApplicationSV-to-ApplyApplictaionSV" style="stroke:#A80036;stroke-width:1.0;stroke-dasharray:7.0,7.0;"/><polygon fill="#A80036" points="784.71,812.8131,776.2415,807.7847,779.7445,812.2264,775.3028,815.7294,784.71,812.8131" style="stroke:#A80036;stroke-width:1.0;"/><text fill="#000000" font-family="sans-serif" font-size="13" lengthAdjust="spacing" textLength="45" x="612" y="790.02">include</text><!--MD5=[a99ee2b6b4264a0ab97cc6c2eae36ad2]
link CheckApplicationSV to DeclineApplicationSV--><path d="M558.21,762.0631 C626.6,758.7931 706.1,754.9931 765.37,752.1631 " fill="none" id="CheckApplicationSV-to-DeclineApplicationSV" style="stroke:#A80036;stroke-width:1.0;stroke-dasharray:7.0,7.0;"/><polygon fill="#A80036" points="770.68,751.9131,761.496,748.3557,765.6859,752.1564,761.8853,756.3463,770.68,751.9131" style="stroke:#A80036;stroke-width:1.0;"/><text fill="#000000" font-family="sans-serif" font-size="13" lengthAdjust="spacing" textLength="45" x="612" y="754.02">include</text><!--MD5=[c37f81d3fd718257f0b3f55df53f1966]
link ST to STWorksList--><path d="M886.26,1419.9531 C938.13,1419.9531 1046.61,1419.9531 1141.27,1419.9531 " fill="none" id="ST-to-STWorksList" style="stroke:#A80036;stroke-width:1.0;"/><polygon fill="#A80036" points="1146.34,1419.9531,1137.34,1415.9531,1141.34,1419.9531,1137.34,1423.9531,1146.34,1419.9531" style="stroke:#A80036;stroke-width:1.0;"/><!--MD5=[63b649a40c6ee9894fce36225c648c0f]
link STWorksList to STWorkInfo--><path d="M1314.5,1383.9031 C1314.5,1369.4031 1314.5,1352.5431 1314.5,1337.3131 " fill="none" id="STWorksList-to-STWorkInfo" style="stroke:#A80036;stroke-width:1.0;stroke-dasharray:7.0,7.0;"/><polygon fill="#A80036" points="1314.5,1332.2131,1310.5,1341.2131,1314.5,1337.2131,1318.5,1341.2131,1314.5,1332.2131" style="stroke:#A80036;stroke-width:1.0;"/><text fill="#000000" font-family="sans-serif" font-size="13" lengthAdjust="spacing" textLength="45" x="1280.5" y="1362.52">include</text><!--MD5=[6f7bfa746fc880e23f526d12a7ccd306]
link STWorkInfo to SVList--><path d="M1314.5,1253.8131 C1314.5,1239.2731 1314.5,1222.7231 1314.5,1207.9431 " fill="none" id="STWorkInfo-to-SVList" style="stroke:#A80036;stroke-width:1.0;stroke-dasharray:7.0,7.0;"/><polygon fill="#A80036" points="1314.5,1202.5831,1310.5,1211.5831,1314.5,1207.5831,1318.5,1211.5831,1314.5,1202.5831" style="stroke:#A80036;stroke-width:1.0;"/><text fill="#000000" font-family="sans-serif" font-size="13" lengthAdjust="spacing" textLength="45" x="1280.5" y="1232.77">include</text><!--MD5=[e6148beae1e8873de2d48f3be98a5240]
link ST to ApplicationsListST--><path d="M886.26,1427.1431 C948.45,1441.6731 1092.02,1475.2131 1195.58,1499.4031 " fill="none" id="ST-to-ApplicationsListST" style="stroke:#A80036;stroke-width:1.0;"/><polygon fill="#A80036" points="1200.48,1500.5531,1192.6315,1494.6032,1195.6122,1499.4111,1190.8043,1502.3918,1200.48,1500.5531" style="stroke:#A80036;stroke-width:1.0;"/><!--MD5=[773b8d0ded6afc843c99edad96078cba]
link ApplicationsListST to CheckApplicationST--><path d="M1482.2,1526.9531 C1520.51,1526.9531 1561.05,1526.9531 1598.74,1526.9531 " fill="none" id="ApplicationsListST-to-CheckApplicationST" style="stroke:#A80036;stroke-width:1.0;stroke-dasharray:7.0,7.0;"/><polygon fill="#A80036" points="1603.79,1526.9531,1594.79,1522.9531,1598.79,1526.9531,1594.79,1530.9531,1603.79,1526.9531" style="stroke:#A80036;stroke-width:1.0;"/><text fill="#000000" font-family="sans-serif" font-size="13" lengthAdjust="spacing" textLength="45" x="1528" y="1523.02">include</text><!--MD5=[e705ebe8e5c86fa9323b24be3ed000da]
link CheckApplicationST to CancelApplicationST--><path d="M1901.36,1526.9531 C1935.82,1526.9531 1971.41,1526.9531 2002.25,1526.9531 " fill="none" id="CheckApplicationST-to-CancelApplicationST" style="stroke:#A80036;stroke-width:1.0;stroke-dasharray:7.0,7.0;"/><polygon fill="#A80036" points="2007.55,1526.9531,1998.55,1522.9531,2002.55,1526.9531,1998.55,1530.9531,2007.55,1526.9531" style="stroke:#A80036;stroke-width:1.0;"/><text fill="#000000" font-family="sans-serif" font-size="13" lengthAdjust="spacing" textLength="45" x="1932" y="1523.02">include</text><!--MD5=[bebcb724c0eee6ef347ee0f84c3bc9f8]
@startuml SSR

title Варианты использования приложения "SSR"

left to right direction

actor :Пользователь: as User
actor :Руководитель: as SV
actor :Студент: as ST
actor :Ведущий руководитель: as Admin

User <|-up- SV
User <|-down- ST

rectangle "Общее" {
    usecase "Просмотреть свой профиль" as Profile
    usecase "Редактирование профиля" as EditProfile
}

rectangle "Взаимодействие со студентами" {
    usecase "Просмотреть список курируемых работ" as SVWorksList
    usecase "Просмотреть информацию о работе" as SVWorkInfo
    usecase "Добавить индивидуальное задание" as CreateTask
    usecase "Редактировать индивидуальное задание" as EditTask
    usecase "Отметить задание как выполненное" as DoneTask
    usecase "Просмотреть прогреcc студента" as CheckProgress
    usecase "Просмотреть список оставленных заявок" as ApplicationsListSV
    usecase "Просмотреть информацию о заявке" as CheckApplicationSV
    usecase "Принять заявку" as ApplyApplictaionSV
    usecase "Отклонить заявку" as DeclineApplicationSV
}

rectangle "Взаимодействие с руководителями" {
    usecase "Оставить заявку" as ConnectToSV
    usecase "Просмотреть список доступных научруков" as SVList
    usecase "Просмотреть профиль научрука" as SVProfile
    usecase "Просмотреть список моих текущих работ" as STWorksList
    usecase "Просмотреть информацию по данной работе" as STWorkInfo
    usecase "Просмотреть список оставленных заявок" as ApplicationsListST
    usecase "Просмотреть информацию о заявке" as CheckApplicationST
    usecase "Отменить заявку" as CancelApplicationST
}


rectangle "Возможности администрирования" {
    usecase "Добавить работу" as CreateWork
    usecase "Назначить руководителя на работу" as AddSVToWork
    usecase "Просмотреть список всех руководителей" as AllSVList
    usecase "Просмотреть список всех работ" as AllWorksList
    usecase "Просмотреть информацию о работе" as CheckWorkInfo
    usecase "Редактировать информацию о работе" as EditWorkInfo
    usecase "Просмотреть статистику по работе" as CheckWorkStat
}


Admin - -> AllSVList

Admin - -> AllWorksList
AllWorksList ..> CreateWork : include
AllWorksList ..> CheckWorkInfo : include
CheckWorkInfo ..> EditWorkInfo : include
CheckWorkInfo ..> CheckWorkStat : include
CheckWorkInfo ..> AddSVToWork : include



User - -> Profile

Profile ..> EditProfile : include

SVList ..> SVProfile : include
SVProfile ..> ConnectToSV : include


SV -> SVWorksList
SVWorksList .> SVWorkInfo : include
SVWorkInfo .> CheckProgress : include
CheckProgress ..> CreateTask: include
CheckProgress ..> DoneTask : include
CheckProgress ..> EditTask : include

SV - -> ApplicationsListSV
ApplicationsListSV .> CheckApplicationSV : include
CheckApplicationSV ..> ApplyApplictaionSV : include
CheckApplicationSV ..> DeclineApplicationSV : include

ST - -> STWorksList
STWorksList .> STWorkInfo : include
STWorkInfo .> SVList : include

ST -> ApplicationsListST
ApplicationsListST ..> CheckApplicationST : include
CheckApplicationST ..> CancelApplicationST : include



@enduml

PlantUML version 1.2022.0(Tue Jan 11 19:16:42 MSK 2022)
(GPL source distribution)
Java Runtime: OpenJDK Runtime Environment
JVM: OpenJDK 64-Bit Server VM
Default Encoding: UTF-8
Language: en
Country: US
--></g></svg>